<?xml version="1.0" encoding="UTF-8"?>
<svg id="Layer_1" xmlns="http://www.w3.org/2000/svg" version="1.1" viewBox="0 0 300 300">
  <!-- Generator: Adobe Illustrator 29.5.0, SVG Export Plug-In . SVG Version: 2.1.0 Build 137)  -->
  <defs>
    <style>
      .st0 {
        fill: #dcbfc9;
      }
    </style>
  </defs>
  <path class="st0" d="M143.87,43.54c-.53-.63-1.02-1.29-1.46-1.97-.59-.92-1.09-1.9-1.46-2.94-.01-.04-.04-.08-.05-.12-.12-.35-.22-.72-.3-1.09-6.2,6.23-14.5,10.93-23.2,12.46l-1.11.17c-1.47.2-2.37-.99-2.67-2.27-.35-1.48-.31-2.99-.1-4.48.06,1.44.19,2.94.68,4.28.3.85.95,1.8,1.95,1.56l1.05-.24c1.28-.31,2.54-.67,3.77-1.08-2.99-6.28-2.87-10.66-2.61-12.53-2.87-1.5-6.5-1.97-9.14.22-.35.29-.68.61-.98.96-.35,2.85.38,6.37,1.48,10.87,2.3,9.36,7.04,10.67,15.02,10.16,5.27-.35,11-5.36,14.76-9.33v226.39h8.94V47.85c-.81-.61-1.59-1.27-2.33-1.96-.79-.74-1.54-1.52-2.24-2.36h0Z"/>
  <path class="st0" d="M191.69,35.98c-1.21-.81-2.53-1.45-3.94-1.84-1.47-.41-3.03-.55-4.55-.39.61,1.18,1.39,3.58.92,7.67-.57,5.1-.69,6.57-1.59,6.95,1.17.35,2.37.65,3.57.89.87.14,1.44-.62,1.74-1.36.56-1.39.71-2.99.77-4.5.22,1.56.26,3.18-.17,4.72-.3,1.04-1.03,2.02-2.23,2.05-.1,0-.26,0-.36-.01-.54-.08-1.09-.14-1.62-.25-9.05-1.75-17.89-6.7-24.75-12.77-1.32.93-2.67,2.53-3.26,3.18-.57.67-1.12,1.35-1.65,2.05.06.06.12.12.18.18,1.69,1.76,3.35,3.54,4.97,5.36.67.74,1.33,1.5,1.99,2.25-.9-.85-1.8-1.7-2.68-2.56.07.13.12.29.13.45-.04.87-1.32,1.47-1.99,1.83-.25.13-.62.29-.84.45-.29.39-.67.75-1.05,1.05-.65.6-1.41.65-2.19.39v222.79h8.94V49.67c4.92,3.59,13.21,8.17,23.02,7.67,7.96.04,4.58-8.76,5.94-11.6,1.27-2.67.74-9.05.68-9.78h.01Z"/>
  <path class="st0" d="M163.38,39.48c5.28-2.68,10.71-5.56,17.62-6.5,3.71-.78,7.74.28,10.71,2.61-.06-.62-.67-2.26-4.33-5.53-4.94-4.4-5.22-5.66-13.39-3.77,0,0-6.27,1.53-10.82,4.56.65,1.04,1.11,2.21,1.29,3.42.29,1.81-.16,3.66-1.09,5.19h.01Z"/>
  <path class="st0" d="M149.1,36.76c.57.62,1.22,1.2,1.78,1.77,1.05,1.07,2.11,2.14,3.15,3.22.02.02.06.06.08.08.34-.38.73-.83,1.17-1.3,1.64-1.77,3.87-3.9,5.52-4.25.66-.12,1.32.14,1.42.86v.07c.04.22.02.44,0,.66.02-.2.01-.43-.02-.65-.05-.25-.17-.49-.37-.66-.6-.38-1.42-.08-2.26.5-.01,0-.02.02-.04.02,1.27.81,2.55,1.6,3.84,2.38.37-.77.63-1.57.75-2.39.26-1.68-.18-3.4-1.02-4.87-.2-.36-.44-.71-.69-1.03-.29-.35-.61-.69-1.02-1.04-2.33-2.01-4.93-1.02-6.7.16-1.52,1.24-2.8,2.79-4.02,4.32-.54.69-1.05,1.4-1.56,2.11l-.02.04Z"/>
  <path class="st0" d="M154.52,50.87c.29-.23.59-.47.85-.72.18-.17.26-.34.47-.5.37-.28,1.03-.47,1.45-.65.23-.1.45-.19.67-.3.02,0,.05-.02.07-.04.32-.18.68-.34.79-.68.05-.28-.1-.55-.19-.83h0c-1.41-1.39-2.81-2.79-4.21-4.21-.13-.13-.26-.26-.39-.41-.13-.14-.28-.28-.41-.42-.23-.23-.44-.45-.67-.68-.49-.5-.98-1.01-1.46-1.51l-2.01-2.07c-.68-.68-1.35-1.45-1.77-2.35-.42-.86-.61-2.03.04-2.82-.48.85-.18,1.88.28,2.67.05.08.11.17.16.25.13.2.29.41.44.6.74-.92,1.69-2.05,2.72-3.12.36-.38.74-.77,1.12-1.12-.53-.74-3.14-4-7.92-2.36-2.3,1.11-3.43,2.69-3.85,4.39-.44,2.5.85,5.24,2.29,7.37.19.28.38.55.56.8,1.45,1.97,3.15,3.71,4.92,5.4.34.32.68.65,1.02.97.91.73,2.41,1.95,3.64,2.37.55.19,1.05.22,1.41-.04h.01Z"/>
  <path class="st0" d="M110.58,34.11c2.35-1.27,5.21-1.03,7.65-.14.45.17.91.35,1.34.55,5.73,1.59,10.14,5.79,16.08,6.2,1.69-1.05,3.34-2.17,4.95-3.31-.18-.78-.26-1.59-.16-2.37-.78-.45-8.34-4.81-12.69-6.55-4.58-1.82-6.38-2.97-13.69.68-3.63,1.82-5.29,4-5.76,6.88.62-.78,1.38-1.46,2.27-1.94h-.01Z"/>
</svg>